/* XPM */
static char * hide_inactive_xpm[] = {
"42 30 23 1",
" 	c #9CAF88",
".	c #A5B695",
"+	c #A5B694",
"@	c #9DB089",
"#	c #9DAF89",
"$	c #A2B490",
"%	c #A6B796",
"&	c #C0CDD2",
"*	c #C3CFD7",
"=	c #A9B899",
"-	c #A2B491",
";	c #B3C1AE",
">	c #A0B28E",
",	c #B2C0AA",
"'	c #A1B38E",
")	c #9CAF89",
"!	c #A9B999",
"~	c #B3C1AD",
"{	c #A0B291",
"]	c #BECAC6",
"^	c #A6B695",
"/	c #B1C0AA",
"(	c #A6B696",
"                                          ",
"                                          ",
"                                          ",
"                                          ",
"                                          ",
"                                          ",
"                                          ",
"                                          ",
"                                          ",
"                                          ",
"                       .+@    #$%         ",
"                       &*=    -*&         ",
"                       ;**>  @,*&         ",
"                       '**,@ .**=         ",
"                       )!**.@~*~@         ",
"                       {>**~%**.{         ",
"                         =**]*~@          ",
"                         @~***.           ",
"                          ^**/@           ",
"                          @^(@            ",
"                                          ",
"                                          ",
"                                          ",
"                                          ",
"                                          ",
"                                          ",
"                                          ",
"                                          ",
"                                          ",
"                                          "};
