/* XPM */
static char * hide_active_xpm[] = {
"42 30 30 1",
" 	c #9CAF88",
".	c #A5B695",
"+	c #A5B694",
"@	c #9DB089",
"#	c #9DAF89",
"$	c #A2B490",
"%	c #A6B796",
"&	c #E7EAE3",
"*	c #ECEFE9",
"=	c #A9B899",
"-	c #A2B491",
";	c #D9DFD3",
">	c #ECEFEB",
",	c #F1F3EF",
"'	c #CAD3C2",
")	c #A0B28E",
"!	c #AFBDA0",
"~	c #F2F4F0",
"{	c #AFBEA0",
"]	c #A8B898",
"^	c #ECEFEA",
"/	c #EEF1EC",
"(	c #AFBDA1",
"_	c #A7B797",
":	c #F4F6F2",
"<	c #EDEFEA",
"[	c #B7C4AB",
"}	c #F7F8F6",
"|	c #F3F4F1",
"1	c #EFF2EC",
"                                          ",
"                                          ",
"                                          ",
"                                          ",
"                                          ",
"                                          ",
"                                          ",
"                                          ",
"                                          ",
"                                          ",
"                       .+@    #$%         ",
"                       &*=    -;>         ",
"                        ,')  @!~{         ",
"                        ],!@ .^^          ",
"                         /^.@(~           ",
"                       _ ]:(%^^ _         ",
"                          ^<[~            ",
"                           }|^            ",
"                           1~             ",
"                                          ",
"                                          ",
"                                          ",
"                                          ",
"                                          ",
"                                          ",
"                                          ",
"                                          ",
"                                          ",
"                                          ",
"                                          "};
