/* XPM */
static char * hide_pressed_xpm[] = {
"42 30 34 1",
" 	c #9CAF88",
".	c #A5B695",
"+	c #A5B694",
"@	c #9DB089",
"#	c #9DAF89",
"$	c #A2B490",
"%	c #A6B796",
"&	c #E7EAE3",
"*	c #ECEFE9",
"=	c #A9B899",
"-	c #A2B491",
";	c #D9DFD3",
">	c #ECEFEB",
",	c #AEBDA0",
"'	c #F1F3EF",
")	c #CAD3C2",
"!	c #A0B28E",
"~	c #AFBDA0",
"{	c #F2F4F0",
"]	c #A1B38E",
"^	c #ECEFEA",
"/	c #A3B494",
"(	c #A9B999",
"_	c #EEF1EC",
":	c #AFBDA1",
"<	c #A4B594",
"[	c #F4F6F2",
"}	c #EDEFEA",
"|	c #B7C4AB",
"1	c #F7F8F6",
"2	c #F3F4F1",
"3	c #A6B695",
"4	c #EFF2EC",
"5	c #A6B696",
"                                          ",
"                                          ",
"                                          ",
"                                          ",
"                                          ",
"                                          ",
"                                          ",
"                                          ",
"                                          ",
"                                          ",
"                       .+@    #$%         ",
"                       &*=    -;>         ",
"                       ,')!  @~{)         ",
"                       ])'~@ .^^=         ",
"                       /(_^.@:{:<         ",
"                        !)[:%^^.          ",
"                         =^}|{:@          ",
"                         @:12^.           ",
"                          34{,@           ",
"                          @35@            ",
"                                          ",
"                                          ",
"                                          ",
"                                          ",
"                                          ",
"                                          ",
"                                          ",
"                                          ",
"                                          ",
"                                          "};
